
  <svg xmlns="http://www.w3.org/2000/svg" width="256" height="256" viewBox="0 0 256 256">
    <rect width="256" height="256" rx="72" fill="#f4efe6" />
    <g transform="translate(128 128)">
      <ellipse rx="170" ry="270" fill="none" stroke="#101113" stroke-width="34" />
      <ellipse rx="132" ry="232" fill="none" stroke="#f0bf5a" stroke-width="10" stroke-dasharray="18 24" opacity="0.95" />
      <path d="M -112 -16 C -48 -120, 46 -120, 116 -12 C 62 34, 10 56, -44 96 C -82 76, -106 38, -112 -16 Z" fill="#8d1111" opacity="0.96" />
      <g transform="translate(-8 40) rotate(-16)">
        <rect x="-124" y="-26" width="248" height="54" rx="14" fill="#101113" />
        <rect x="-115" y="-17" width="32" height="36" rx="8" fill="#d9d3c7" />
        <rect x="-72" y="-17" width="32" height="36" rx="8" fill="#d9d3c7" />
        <rect x="-29" y="-17" width="32" height="36" rx="8" fill="#d9d3c7" />
        <rect x="14" y="-17" width="32" height="36" rx="8" fill="#d9d3c7" />
        <rect x="57" y="-17" width="32" height="36" rx="8" fill="#d9d3c7" />
        <rect x="100" y="-17" width="15" height="36" rx="8" fill="#d9d3c7" />
      </g>
      <circle cx="92" cy="-144" r="18" fill="#f0bf5a" />
    </g>
  </svg>